0
SECTION
2
HEADER
0
ENDSEC
0
SECTION
2
TABLES
0
TABLE
2
LAYER
70
3
0
LAYER
2
0
70
0
62
1
6
CONTINUOUS
0
LAYER
2
2
70
0
62
3
6
CONTINUOUS
0
LAYER
2
3
70
0
62
4
6
CONTINUOUS
0
ENDTAB
0
ENDSEC
0
SECTION
2
BLOCKS
0
ENDSEC
0
SECTION
2
ENTITIES
0
LINE
 8
0
 10
-0.111227218
 20
-0.0193944756
 11
-0.265506101
 21
-0.0193944756
 0
LINE
 8
0
 10
-0.120015326
 20
-0.190424287
 11
0.104093402
 21
0.193487154
 0
LINE
 8
0
 10
0.104093402
 20
0.193487154
 11
0.013042683
 21
0.193487154
 0
LINE
 8
0
 10
0.013042683
 20
0.193487154
 11
-0.111227218
 21
-0.0193944756
 0
LINE
 8
0
 10
-0.185873836
 20
-0.190424287
 11
-0.120015326
 21
-0.190424287
 0
LINE
 8
0
 10
-0.158076847
 20
-0.0996500974
 11
-0.20142538
 21
-0.173908127
 0
ARC
 8
0
 10
-1.08502894e-006
 20
0.000172398788
 40
0.266225048
 50
202.021545761
 51
220.835151566
 0
LINE
 8
0
 10
-0.246803122
 20
-0.0996500974
 11
-0.158076847
 21
-0.0996500974
 0
LINE
 8
0
 10
-0.346265621
 20
-0.0193944756
 11
-0.392296722
 21
-0.0193944756
 0
ARC
 8
0
 10
0
 20
0
 40
0.346808342
 50
196.698465152
 51
183.205808937
 0
ARC
 8
0
 10
-1.08502894e-006
 20
0.000172398788
 40
0.266225048
 50
225.718914407
 51
25.1160740688
 0
LINE
 8
0
 10
0.0638276337
 20
-0.190424287
 11
0.24105232
 21
0.11317254
 0
LINE
 8
0
 10
-0.0272230853
 20
-0.190424287
 11
0.0638276337
 21
-0.190424287
 0
LINE
 8
0
 10
0.0257661128
 20
-0.0996500974
 11
-0.0272230853
 21
-0.190424287
 0
LINE
 8
0
 10
-0.0402064528
 20
-0.0996500974
 11
0.0257661128
 21
-0.0996500974
 0
LINE
 8
0
 10
0.00710098575
 20
-0.0193944756
 11
-0.0402064528
 21
-0.0996500974
 0
LINE
 8
0
 10
0.0726157414
 20
-0.0193944756
 11
0.00710098575
 21
-0.0193944756
 0
LINE
 8
0
 10
0.191809651
 20
0.184792055
 11
0.0726157414
 21
-0.0193944756
 0
ARC
 8
0
 10
-1.08502894e-006
 20
0.000172398788
 40
0.266225048
 50
43.9055932113
 51
184.214901085
 0
LINE
 8
0
 10
-0.439604161
 20
-0.0996500974
 11
-0.33218351
 21
-0.0996500974
 0
LINE
 8
0
 10
-0.392296722
 20
-0.0193944756
 11
-0.439604161
 21
-0.0996500974
 0
ENDSEC
0
EOF
