0
SECTION
2
HEADER
0
ENDSEC
0
SECTION
2
TABLES
0
TABLE
2
LAYER
70
3
0
LAYER
2
0
70
0
62
1
6
CONTINUOUS
0
LAYER
2
2
70
0
62
3
6
CONTINUOUS
0
LAYER
2
3
70
0
62
4
6
CONTINUOUS
0
ENDTAB
0
ENDSEC
0
SECTION
2
BLOCKS
0
ENDSEC
0
SECTION
2
ENTITIES
0
LINE
 8
0
 10
0.179612478
 20
0.323454539
 11
-0.0495507977
 21
-0.0691159561
 0
LINE
 8
0
 10
0.0541763311
 20
-0.0691159561
 11
0.114554512
 21
0.0343148978
 0
LINE
 8
0
 10
0.157922533
 20
-0.0691159561
 11
0.0541763311
 21
-0.0691159561
 0
LINE
 8
0
 10
0.0946189038
 20
-0.192280239
 11
0.127193028
 21
-0.136375003
 0
LINE
 8
0
 10
0.127193028
 20
-0.136375003
 11
0.127193028
 21
-0.256102667
 0
LINE
 8
0
 10
0.081461589
 20
-0.127527872
 11
0.121406556
 21
-0.127527872
 0
LINE
 8
0
 10
0.121406556
 20
-0.127527872
 11
0.0267490816
 21
-0.289681328
 0
LINE
 8
0
 10
0.20049074
 20
-0.289681328
 11
0.200490316
 21
-0.289681328
 0
LINE
 8
0
 10
0.119506413
 20
-0.289681328
 11
0.119505989
 21
-0.289681328
 0
LINE
 8
0
 10
0.119505989
 20
-0.289680904
 11
0.0946468782
 21
-0.289680904
 0
LINE
 8
0
 10
0.413278368
 20
0.368323856
 11
0.157922533
 21
-0.0691159561
 0
LINE
 8
0
 10
0.347432031
 20
-0.299908532
 11
0.347432031
 21
-0.161427391
 0
LINE
 8
0
 10
0.195816041
 20
-0.189557817
 11
0.243703909
 21
-0.189557817
 0
LINE
 8
0
 10
0.21038988
 20
-0.223336537
 11
0.160625652
 21
-0.223336537
 0
LINE
 8
0
 10
0.199888164
 20
-0.289681328
 11
0.119506413
 21
-0.289681328
 0
LINE
 8
0
 10
0.256657381
 20
-0.212121384
 11
0.217159461
 21
-0.279766084
 0
LINE
 8
0
 10
0.127193028
 20
-0.256102667
 11
0.184993336
 21
-0.256102667
 0
LINE
 8
0
 10
0.193558104
 20
-0.251264523
 11
0.21038988
 21
-0.223336537
 0
LINE
 8
0
 10
0.210007722
 20
-0.165377965
 11
0.195816041
 21
-0.189557817
 0
LINE
 8
0
 10
0.347432031
 20
-0.161427391
 11
0.216907153
 21
-0.161427391
 0
LINE
 8
0
 10
0.347432031
 20
-0.299454538
 11
0.347432031
 21
-0.161427391
 0
LINE
 8
0
 10
-0.32343203
 20
-0.323454538
 11
0.323432031
 21
-0.323454538
 0
ARC
 8
0
 10
0.243703909
 20
-0.204557817
 40
0.015
 50
329.719240597
 51
90.0000025045
 0
ARC
 8
0
 10
0.199888164
 20
-0.269681328
 40
0.02
 50
270.000000683
 51
329.719240597
 0
ARC
 8
0
 10
0.184993336
 20
-0.246102667
 40
0.01
 50
270.000000683
 51
328.923277672
 0
ARC
 8
0
 10
0.216907153
 20
-0.169427391
 40
0.008
 50
90.0000025045
 51
149.59040456
 0
ARC
 8
0
 10
0.196614678
 20
-0.136793755
 40
0.01
 50
90.0000025045
 51
149.716162003
 0
ARC
 8
0
 10
0.323432031
 20
-0.299454538
 40
0.024
 50
270.000000683
 51
0
 0
LINE
 8
0
 10
-0.0291336902
 20
-0.127527872
 11
0.00858857947
 21
-0.127527872
 0
LINE
 8
0
 10
0.00858857947
 20
-0.127527872
 11
-0.0860684708
 21
-0.289681328
 0
LINE
 8
0
 10
-0.0177370702
 20
-0.19111718
 11
0.0141571898
 21
-0.136375003
 0
LINE
 8
0
 10
0.0141571898
 20
-0.136375003
 11
0.0141571898
 21
-0.241026984
 0
LINE
 8
0
 10
0.0141571898
 20
-0.241026984
 11
0.081461589
 21
-0.127527872
 0
LINE
 8
0
 10
0.0946468782
 20
-0.289680904
 11
0.094635858
 21
-0.251340654
 0
LINE
 8
0
 10
0.094635858
 20
-0.251340654
 11
0.0602684026
 21
-0.251340654
 0
LINE
 8
0
 10
0.0602684026
 20
-0.251340654
 11
0.0800810925
 21
-0.21744283
 0
LINE
 8
0
 10
0.0800810925
 20
-0.21744283
 11
0.0946261093
 21
-0.21744283
 0
LINE
 8
0
 10
0.0946261093
 20
-0.21744283
 11
0.0946189038
 21
-0.192280239
 0
LINE
 8
0
 10
0.0267490816
 20
-0.289681328
 11
-0.0176501799
 21
-0.289681328
 0
LINE
 8
0
 10
0.347432031
 20
-0.126793755
 11
0.347432031
 21
0.227975634
 0
ARC
 8
0
 10
0.160625652
 20
-0.208336537
 40
0.015
 50
149.716162003
 51
270.000000683
 0
LINE
 8
0
 10
0.147672585
 20
-0.200772276
 11
0.187979299
 21
-0.131750914
 0
LINE
 8
0
 10
0.114554512
 20
0.0343148978
 11
0.114554088
 21
0.0343148978
 0
LINE
 8
0
 10
0.114554088
 20
0.0343148978
 11
0.0393829351
 21
0.0343148978
 0
LINE
 8
0
 10
0.0393829351
 20
0.0343148978
 11
0.0932863029
 21
0.125760397
 0
LINE
 8
0
 10
-0.34743203
 20
0.125760397
 11
-0.0395376412
 21
0.125760397
 0
LINE
 8
0
 10
-0.0929188193
 20
0.0343148978
 11
-0.0929192432
 21
0.0343148978
 0
LINE
 8
0
 10
-0.0929192432
 20
0.0343148978
 11
-0.34743203
 21
0.0343148978
 0
LINE
 8
0
 10
-0.34743203
 20
0.0343148978
 11
-0.443542056
 21
0.0343148978
 0
LINE
 8
0
 10
-0.389639112
 20
0.125760397
 11
-0.34743203
 21
0.125760397
 0
LINE
 8
0
 10
-0.44354248
 20
0.0343148978
 11
-0.389639112
 21
0.125760397
 0
LINE
 8
0
 10
-0.34743203
 20
0.299454539
 11
-0.34743203
 21
0.139649286
 0
LINE
 8
0
 10
-0.40163645
 20
0.132758504
 11
-0.455408578
 21
0.0415352275
 0
LINE
 8
0
 10
-0.34743203
 20
0.139649286
 11
-0.389575811
 21
0.139649286
 0
ARC
 8
0
 10
-0.389575811
 20
0.125649286
 40
0.014
 50
90.0000025045
 51
149.482514892
 0
LINE
 8
0
 10
-0.443542056
 20
0.0343148978
 11
-0.44354248
 21
0.0343148978
 0
ARC
 8
0
 10
-0.443347939
 20
0.0344260089
 40
0.014
 50
149.482514892
 51
270.000000683
 0
LINE
 8
0
 10
0.16793569
 20
0.125760397
 11
0.309532166
 21
0.368323856
 0
LINE
 8
0
 10
0.267257691
 20
0.323454539
 11
0.195694818
 21
0.323454539
 0
LINE
 8
0
 10
0.205805461
 20
0.368323856
 11
0.179612902
 21
0.323454539
 0
LINE
 8
0
 10
0.179612902
 20
0.323454539
 11
0.179612478
 21
0.323454539
 0
LINE
 8
0
 10
-0.0395376412
 20
0.125760397
 11
0.102058835
 21
0.368323856
 0
LINE
 8
0
 10
0.0932863029
 20
0.125760397
 11
0.16793569
 21
0.125760397
 0
LINE
 8
0
 10
0.102059259
 20
0.368323856
 11
0.205805037
 21
0.368323856
 0
LINE
 8
0
 10
0.205805037
 20
0.368323856
 11
0.205805461
 21
0.368323856
 0
LINE
 8
0
 10
0.102058835
 20
0.368323856
 11
0.102059259
 21
0.368323856
 0
LINE
 8
0
 10
0.309532166
 20
0.368323856
 11
0.413278368
 21
0.368323856
 0
LINE
 8
0
 10
0.347432031
 20
0.227975634
 11
0.425175568
 21
0.361154778
 0
LINE
 8
0
 10
0.195694818
 20
0.323454539
 11
0.217702259
 21
0.361154815
 0
LINE
 8
0
 10
0.205611534
 20
0.382212745
 11
0.102122863
 21
0.382212745
 0
LINE
 8
0
 10
0.297505494
 20
0.375270717
 11
0.267257691
 21
0.323454539
 0
LINE
 8
0
 10
0.413084865
 20
0.382212745
 11
0.309596195
 21
0.382212745
 0
ARC
 8
0
 10
0.413084865
 20
0.368212745
 40
0.014
 50
329.725688295
 51
90.0000025045
 0
ARC
 8
0
 10
0.205611534
 20
0.368212745
 40
0.014
 50
329.72585222
 51
90.0000025045
 0
ARC
 8
0
 10
0.102122863
 20
0.368212745
 40
0.014
 50
90.0000025045
 51
149.725669626
 0
ARC
 8
0
 10
0.309596195
 20
0.368212745
 40
0.014
 50
90.0000025045
 51
149.725669626
 0
LINE
 8
0
 10
-0.071862962
 20
0.323454539
 11
-0.32343203
 21
0.323454539
 0
LINE
 8
0
 10
0.0597843599
 20
0.323454539
 11
-0.071862962
 21
0.323454539
 0
LINE
 8
0
 10
0.0900321632
 20
0.375270717
 11
0.0597843599
 21
0.323454539
 0
ARC
 8
0
 10
-0.32343203
 20
0.299454539
 40
0.024
 50
90.0000025045
 51
180.000005009
 0
LINE
 8
0
 10
-0.153297
 20
-0.0691159561
 11
-0.0929188193
 21
0.0343148978
 0
LINE
 8
0
 10
-0.0495507977
 20
-0.0691159561
 11
-0.153297
 21
-0.0691159561
 0
LINE
 8
0
 10
-0.34743203
 20
0.0204260089
 11
-0.34743203
 21
-0.21744283
 0
LINE
 8
0
 10
-0.443347939
 20
0.0204260089
 11
-0.34743203
 21
0.0204260089
 0
LINE
 8
0
 10
-0.139581892
 20
-0.21744283
 11
-0.0870937766
 21
-0.127527872
 0
LINE
 8
0
 10
-0.0870937766
 20
-0.127527872
 11
-0.0486365419
 21
-0.127527872
 0
LINE
 8
0
 10
-0.0486365419
 20
-0.127527872
 11
-0.143293592
 21
-0.289681328
 0
LINE
 8
0
 10
-0.123791164
 20
-0.289681328
 11
-0.0291341141
 21
-0.127527872
 0
LINE
 8
0
 10
-0.0291341141
 20
-0.127527872
 11
-0.0291336902
 21
-0.127527872
 0
LINE
 8
0
 10
-0.164743635
 20
-0.127527872
 11
-0.1262864
 21
-0.127527872
 0
LINE
 8
0
 10
-0.1262864
 20
-0.127527872
 11
-0.220943874
 21
-0.289681328
 0
LINE
 8
0
 10
-0.0176501799
 20
-0.289681328
 11
-0.0176840883
 21
-0.251340654
 0
LINE
 8
0
 10
-0.0176840883
 20
-0.251340654
 11
-0.0528767899
 21
-0.251340654
 0
LINE
 8
0
 10
-0.0528767899
 20
-0.251340654
 11
-0.0329394865
 21
-0.21744283
 0
LINE
 8
0
 10
-0.0329394865
 20
-0.21744283
 11
-0.0177137582
 21
-0.21744283
 0
LINE
 8
0
 10
-0.0177137582
 20
-0.21744283
 11
-0.0177370702
 21
-0.19111718
 0
LINE
 8
0
 10
-0.167253282
 20
-0.21744283
 11
-0.139581892
 21
-0.21744283
 0
LINE
 8
0
 10
-0.0860688946
 20
-0.289681328
 11
-0.123791164
 21
-0.289681328
 0
LINE
 8
0
 10
-0.0860684708
 20
-0.289681328
 11
-0.0860688946
 21
-0.289681328
 0
LINE
 8
0
 10
-0.143293592
 20
-0.289681328
 11
-0.181750827
 21
-0.289681328
 0
LINE
 8
0
 10
-0.217232174
 20
-0.21744283
 11
-0.164744059
 21
-0.127527872
 0
LINE
 8
0
 10
-0.164744059
 20
-0.127527872
 11
-0.164743635
 21
-0.127527872
 0
LINE
 8
0
 10
-0.259401109
 20
-0.289681328
 11
-0.237019856
 21
-0.251340654
 0
LINE
 8
0
 10
-0.237019856
 20
-0.251340654
 11
-0.34743203
 21
-0.251340654
 0
LINE
 8
0
 10
-0.181751251
 20
-0.289681328
 11
-0.159369574
 21
-0.251340654
 0
LINE
 8
0
 10
-0.159369574
 20
-0.251340654
 11
-0.187234666
 21
-0.251340654
 0
LINE
 8
0
 10
-0.34743203
 20
-0.21744283
 11
-0.217232174
 21
-0.21744283
 0
LINE
 8
0
 10
-0.187234666
 20
-0.251340654
 11
-0.167253706
 21
-0.21744283
 0
LINE
 8
0
 10
-0.167253706
 20
-0.21744283
 11
-0.167253282
 21
-0.21744283
 0
LINE
 8
0
 10
-0.220943874
 20
-0.289681328
 11
-0.259401109
 21
-0.289681328
 0
LINE
 8
0
 10
-0.181750827
 20
-0.289681328
 11
-0.181751251
 21
-0.289681328
 0
LINE
 8
0
 10
-0.34743203
 20
-0.251340654
 11
-0.34743203
 21
-0.299454538
 0
ARC
 8
0
 10
-0.32343203
 20
-0.299454538
 40
0.024
 50
180.000005009
 51
270.000000683
 0
LINE
 8
0
 10
0.196614678
 20
-0.126793755
 11
0.347432031
 21
-0.126793755
 0
ENDSEC
0
EOF
